Since 2008 ODLO City Biathlon is an international summer biathlon event, held annually since 2005 in Püttlingen in Saarland. In addition to active competitions for men and women, each consisting of one qualifying race and finals, it was in 2007, also a former All-Star race biathlon stars like Raphael Poirée, Liv Grete Poirée, Sven Fischer and Ricco Gross.


Participants 2011

Men: Ole Einar Bjørndalen (NOR), Tarjei Bø (NOR), Michael Greis (GER), Martin Fourcade (FRA), Björn Ferry (SWE), Ivan Tcherezov (RUS), Andreas Birnbacher (GER), Daniel Böhm (GER)

Women: Kaisa Mäkäräinen (FIN), Magdalena Neuner (GER), Andrea Henkel (GER), Helena Ekholm (SWE) will be replaced by Selina Gasparin (SUI), Tora Berger (NOR), Marie Laure Brunet (FRA), Darya Domracheva (BLR), Sabrina Buchholz (GER)
 

Screenshots: 
http://img820.imageshack.us/img820/3105/odlocitybiathlon0708201.png 
http://img263.imageshack.us/img263/3105/odlocitybiathlon0708201.png 
http://img685.imageshack.us/img685/3105/odlocitybiathlon0708201.png 
http://img560.imageshack.us/img560/3105/odlocitybiathlon0708201.png 
http://img19.imageshack.us/img19/3105/odlocitybiathlon0708201.png


Video
ID                               : 0
Format                           : MPEG-4 Visual
Format profile                   : Advanced Simple@L5
Format settings, BVOP            : 2
Format settings, QPel            : No
Format settings, GMC             : No warppoints
Format settings, Matrix          : Default (MPEG)
Muxing mode                      : Packed bitstream
Codec ID                         : XVID
Codec ID/Hint                    : XviD
Duration                         : 1h 32mn
Bit rate                         : 757 Kbps
Width                            : 432 pixels
Height                           : 240 pixels
Display aspect ratio             : 16:9
Frame rate                       : 25.000 fps
Color space                      : YUV
Chroma subsampling               : 4:2:0
Bit depth                        : 8 bits
Scan type                        : Progressive
Compression mode                 : Lossy
Bits/(Pixel*Frame)               : 0.292
Stream size                      : 501 MiB (85%)
Writing library                  : XviD 64

Audio
ID                               : 1
Format                           : MPEG Audio
Format version                   : Version 1
Format profile                   : Layer 3
Mode                             : Joint stereo
Mode extension                   : MS Stereo
Codec ID                         : 55
Codec ID/Hint                    : MP3
Duration                         : 1h 32mn
Bit rate mode                    : Constant
Bit rate                         : 128 Kbps
Channel(s)                       : 2 channels
Sampling rate                    : 44.1 KHz
Compression mode                 : Lossy
Stream size                      : 84.8 MiB (14%)
Alignment                        : Split accross interleaves
Interleave, duration             : 40 ms (0.99 video frame)
Interleave, preload duration     : 500 ms
Writing library                  : LAME3.98.2